{
    "asset" : {
        "generator" : "Khronos glTF Blender I/O v1.7.33",
        "version" : "2.0"
    },
    "scene" : 0,
    "scenes" : [
        {
            "name" : "Scene",
            "nodes" : [
                4
            ]
        }
    ],
    "nodes" : [
        {
            "mesh" : 0,
            "name" : "TrashCan_Blue_TrashCan(Blue)_0"
        },
        {
            "children" : [
                0
            ],
            "name" : "TrashCan_Blue",
            "rotation" : [
                -0.7071068286895752,
                0,
                0,
                0.7071068286895752
            ],
            "translation" : [
                0,
                0,
                33.963356018066406
            ]
        },
        {
            "children" : [
                1
            ],
            "name" : "RootNode"
        },
        {
            "children" : [
                2
            ],
            "name" : "c27265049c8c4b8ca4d9acb073e08710.fbx",
            "rotation" : [
                0.7071068286895752,
                0,
                0,
                0.7071068286895752
            ]
        },
        {
            "children" : [
                3
            ],
            "name" : "Sketchfab_model",
            "rotation" : [
                -0.7071068286895752,
                0,
                0,
                0.7071068286895752
            ]
        }
    ],
    "materials" : [
        {
            "doubleSided" : true,
            "name" : "TrashCanBlue",
            "normalTexture" : {
                "index" : 0
            },
            "occlusionTexture" : {
                "index" : 1
            },
            "pbrMetallicRoughness" : {
                "baseColorTexture" : {
                    "index" : 2
                },
                "metallicRoughnessTexture" : {
                    "index" : 1
                }
            }
        }
    ],
    "meshes" : [
        {
            "name" : "TrashCan_Blue_TrashCan(Blue)_0",
            "primitives" : [
                {
                    "attributes" : {
                        "POSITION" : 0,
                        "NORMAL" : 1,
                        "TEXCOORD_0" : 2
                    },
                    "indices" : 3,
                    "material" : 0
                }
            ]
        }
    ],
    "textures" : [
        {
            "sampler" : 0,
            "source" : 0
        },
        {
            "sampler" : 0,
            "source" : 1
        },
        {
            "sampler" : 0,
            "source" : 2
        }
    ],
    "images" : [
        {
            "mimeType" : "image/png",
            "name" : "TrashCanGrey_normal",
            "uri" : "TrashCanGrey_normal.png"
        },
        {
            "mimeType" : "image/png",
            "name" : "TrashCanGrey_metallicRoughness",
            "uri" : "TrashCanGrey_metallicRoughness.png"
        },
        {
            "mimeType" : "image/png",
            "name" : "TrashCanBlue_baseColor",
            "uri" : "TrashCanBlue_baseColor.png"
        }
    ],
    "accessors" : [
        {
            "bufferView" : 0,
            "componentType" : 5126,
            "count" : 1508,
            "max" : [
                32.13014221191406,
                29.479846954345703,
                113.1099853515625
            ],
            "min" : [
                -28.69991683959961,
                -29.479846954345703,
                -3.814697265625e-06
            ],
            "type" : "VEC3"
        },
        {
            "bufferView" : 1,
            "componentType" : 5126,
            "count" : 1508,
            "type" : "VEC3"
        },
        {
            "bufferView" : 2,
            "componentType" : 5126,
            "count" : 1508,
            "type" : "VEC2"
        },
        {
            "bufferView" : 3,
            "componentType" : 5123,
            "count" : 2940,
            "type" : "SCALAR"
        }
    ],
    "bufferViews" : [
        {
            "buffer" : 0,
            "byteLength" : 18096,
            "byteOffset" : 0
        },
        {
            "buffer" : 0,
            "byteLength" : 18096,
            "byteOffset" : 18096
        },
        {
            "buffer" : 0,
            "byteLength" : 12064,
            "byteOffset" : 36192
        },
        {
            "buffer" : 0,
            "byteLength" : 5880,
            "byteOffset" : 48256
        }
    ],
    "samplers" : [
        {
            "magFilter" : 9729,
            "minFilter" : 9987
        }
    ],
    "buffers" : [
        {
            "byteLength" : 54136,
            "uri" : "untitled.bin"
        }
    ]
}
